HIERARCHY
ROOT joint_Root
{
  OFFSET 0 0 0
  CHANNELS 6 Xposition Yposition Zposition Zrotation Xrotation Yrotation
  JOINT Hips
  {
    OFFSET 0.847027 93.984 -452.225
    CHANNELS 6 Xposition Yposition Zposition Zrotation Xrotation Yrotation
    JOINT Spine
    {
      OFFSET 15.7357 0 0
      CHANNELS 6 Xposition Yposition Zposition Zrotation Xrotation Yrotation
      JOINT Chest
      {
        OFFSET 8.98455 -0.406207 0
        CHANNELS 6 Xposition Yposition Zposition Zrotation Xrotation Yrotation
        JOINT Neck
        {
          OFFSET 16.3773 0 0
          CHANNELS 6 Xposition Yposition Zposition Zrotation Xrotation Yrotation
          JOINT Head
          {
            OFFSET 6.45672 0 0
            CHANNELS 6 Xposition Yposition Zposition Zrotation Xrotation Yrotation
            End Site
            {
              OFFSET 0 0 0
            }
          }
        }
        JOINT Shoulder_L
        {
          OFFSET 12.9942 -0.242716 4.98039
          CHANNELS 6 Xposition Yposition Zposition Zrotation Xrotation Yrotation
          JOINT UpperArm_L
          {
            OFFSET 5.34809 0 0
            CHANNELS 6 Xposition Yposition Zposition Zrotation Xrotation Yrotation
            JOINT LowerArm_L
            {
              OFFSET 24.3286 1.87007e-05 0
              CHANNELS 6 Xposition Yposition Zposition Zrotation Xrotation Yrotation
              JOINT Hand_L
              {
                OFFSET 22.2916 0 0
                CHANNELS 6 Xposition Yposition Zposition Zrotation Xrotation Yrotation
                End Site
                {
                  OFFSET 0 0 0
                }
              }
            }
          }
        }
        JOINT Shoulder_R
        {
          OFFSET 12.9945 -0.242716 -4.98039
          CHANNELS 6 Xposition Yposition Zposition Zrotation Xrotation Yrotation
          JOINT UpperArm_R
          {
            OFFSET -5.34813 0 0
            CHANNELS 6 Xposition Yposition Zposition Zrotation Xrotation Yrotation
            JOINT LowerArm_R
            {
              OFFSET -24.3289 0.000322201 0
              CHANNELS 6 Xposition Yposition Zposition Zrotation Xrotation Yrotation
              JOINT Hand_R
              {
                OFFSET -22.2915 -0.000108084 0
                CHANNELS 6 Xposition Yposition Zposition Zrotation Xrotation Yrotation
                End Site
                {
                  OFFSET 0 0 0
                }
              }
            }
          }
        }
      }
    }
    JOINT UpperLeg_L
    {
      OFFSET -2.19248 -6.46944 0
      CHANNELS 6 Xposition Yposition Zposition Zrotation Xrotation Yrotation
      JOINT LowerLeg_L
      {
        OFFSET 39.0811 0 -1.23785e-05
        CHANNELS 6 Xposition Yposition Zposition Zrotation Xrotation Yrotation
        JOINT Foot_L
        {
          OFFSET 40.9854 0 -1.26872e-05
          CHANNELS 6 Xposition Yposition Zposition Zrotation Xrotation Yrotation
          JOINT Toes_L
          {
            OFFSET 11.7543 0 0
            CHANNELS 6 Xposition Yposition Zposition Zrotation Xrotation Yrotation
            End Site
            {
              OFFSET 0 0 0
            }
          }
        }
      }
    }
    JOINT UpperLeg_R
    {
      OFFSET -2.19251 6.46944 0
      CHANNELS 6 Xposition Yposition Zposition Zrotation Xrotation Yrotation
      JOINT LowerLeg_R
      {
        OFFSET -39.0811 -0.00228153 -0.0401928
        CHANNELS 6 Xposition Yposition Zposition Zrotation Xrotation Yrotation
        JOINT Foot_R
        {
          OFFSET -40.9854 0 0
          CHANNELS 6 Xposition Yposition Zposition Zrotation Xrotation Yrotation
          JOINT Toes_R
          {
            OFFSET -11.7543 0 0
            CHANNELS 6 Xposition Yposition Zposition Zrotation Xrotation Yrotation
            End Site
            {
              OFFSET 0 0 0
            }
          }
        }
      }
    }
  }
}
MOTION
Frames:	8
Frame Time:	0.0333333
0 0 0 0 0 -0 -0.813245 92.9915 3.94136 90.0133 -0.374618 0.0506117 15.7357 5.1072e-06 -5.51765e-07 112.51 86.9587 -115.291 8.98455 -0.406207 -4.3199e-07 -2.07931 2.56675 -5.51541 16.3773 -1.3905e-06 -6.99897e-07 -1.79959 -4.11768 4.16365 6.45672 -1.25837e-06 -1.02172e-07 -3.6451 -3.3736 0.248112 12.9942 -0.242716 4.98039 -92.3339 7.24515 -87.0909 5.34809 -7.22636e-06 -6.2814e-07 -62.0426 2.48103 7.97622 24.3286 1.87007e-05 4.90208e-06 0.0464599 0.134539 -19.035 22.2916 -9.88446e-07 4.63217e-06 17.9216 5.54273 -8.36829 12.9945 -0.242716 -4.98039 96.6564 -15.2785 -81.1129 -5.34813 -1.25947e-06 -3.79883e-06 -73.6061 -82.0477 -121.417 -24.3289 0.000322201 -8.65921e-06 -1.29845 -2.88953 -24.2163 -22.2915 -0.000108084 -4.47941e-06 13.9581 5.41068 -3.27781 -2.19248 -6.46944 -1.22534e-07 -174.552 -6.69095 2.73833 39.0811 -6.73843e-06 -1.23785e-05 0.000237096 0.014909 7.97305 40.9854 -6.48686e-06 -1.26872e-05 -4.00939 3.64545 -60.4596 11.7543 -2.30145e-07 3.05095e-06 -0.0127618 0.00949004 -16.5758 -2.19251 6.46944 -1.45247e-06 172.384 19.7199 -176.724 -39.0811 -0.00228153 -0.0401928 0.00820579 -0.0155013 8.25724 -40.9854 7.72618e-06 5.99936e-06 -3.55371 9.18575 -59.3725 -11.7543 -5.6619e-06 -5.58687e-06 0.101301 -0.114876 -17.7002 
0 0 0 0 0 -0 -0.746205 92.9731 3.99785 89.9809 -1.27745 0.157862 15.7357 5.1072e-06 -5.51765e-07 113.901 87.0043 -116.355 8.98455 -0.406207 -4.3199e-07 -2.22811 2.64058 -4.85644 16.3773 -1.3905e-06 -6.99897e-07 -1.75957 -4.38995 4.79091 6.45672 -1.25837e-06 -1.02172e-07 -2.92791 -2.63871 -0.335562 12.9942 -0.242716 4.98039 -92.2121 6.97362 -87.3516 5.34809 -7.22636e-06 -6.2814e-07 -62.5147 1.49194 8.40392 24.3286 1.87007e-05 4.90208e-06 -0.0173948 -0.0514546 -18.7342 22.2916 -9.88446e-07 4.63217e-06 18.3252 5.54328 -8.39307 12.9945 -0.242716 -4.98039 97.3028 -16.5213 -80.7415 -5.34813 -1.25947e-06 -3.79883e-06 -60.8867 -81.6495 -113.93 -24.3289 0.000322201 -8.65921e-06 -1.95888 -2.65744 -36.3756 -22.2915 -0.000108084 -4.47941e-06 16.0735 5.50843 -6.86651 -2.19248 -6.46944 -1.22534e-07 -174.561 -7.2388 2.98684 39.0811 -6.73843e-06 -1.23785e-05 -0.00099524 0.0230287 8.09892 40.9854 -6.48686e-06 -1.26872e-05 -3.99078 3.33443 -60.6732 11.7543 -2.30145e-07 3.05095e-06 -0.0106969 0.00773863 -16.5762 -2.19251 6.46944 -1.45247e-06 172.383 18.7828 -176.672 -39.0811 -0.00228153 -0.0401928 0.00806798 -0.0138177 8.09345 -40.9854 7.72618e-06 5.99936e-06 -3.65251 9.13867 -59.3709 -11.7543 -5.6619e-06 -5.58687e-06 0.0978401 -0.110863 -17.6613 
0 0 0 0 0 -0 -0.84113 92.9459 4.04702 89.8886 -1.57348 0.294274 15.7357 5.1072e-06 -5.51765e-07 114.685 87.0209 -117.155 8.98455 -0.406207 -4.3199e-07 -2.29019 2.70423 -4.88764 16.3773 -1.3905e-06 -6.99897e-07 -1.74469 -4.76025 5.68316 6.45672 -1.25837e-06 -1.02172e-07 -2.80719 -2.18561 -0.24569 12.9942 -0.242716 4.98039 -91.9719 6.20392 -87.3285 5.34809 -7.22636e-06 -6.2814e-07 -62.8807 0.303998 8.02153 24.3286 1.87007e-05 4.90208e-06 -0.00539065 -0.0159063 -18.6615 22.2916 -9.88446e-07 4.63217e-06 18.8122 5.54156 -8.31321 12.9945 -0.242716 -4.98039 97.7709 -17.1594 -80.1773 -5.34813 -1.25947e-06 -3.79883e-06 -42.3811 -82.1052 -97.3498 -24.3289 0.000322201 -8.65921e-06 -1.59083 -1.73426 -42.514 -22.2915 -0.000108084 -4.47941e-06 16.447 5.57232 -9.80795 -2.19248 -6.46944 -1.22534e-07 -174.429 -7.05223 3.00536 39.0811 -6.73843e-06 -1.23785e-05 -0.00242216 0.0340035 8.49398 40.9854 -6.48686e-06 -1.26872e-05 -4.08614 2.88033 -60.9494 11.7543 -2.30145e-07 3.05095e-06 -0.0158717 0.0113508 -16.5755 -2.19251 6.46944 -1.45247e-06 172.52 18.3708 -176.52 -39.0811 -0.00228153 -0.0401928 0.00741185 -0.0113676 8.06853 -40.9854 7.72618e-06 5.99936e-06 -3.64188 8.99092 -59.5433 -11.7543 -5.6619e-06 -5.58687e-06 0.0969217 -0.109804 -17.651 
0 0 0 0 0 -0 -1.06607 92.9283 4.0994 89.7853 -0.789558 0.332173 15.7357 5.1072e-06 -5.51765e-07 113.41 87.0742 -116.18 8.98455 -0.406207 -4.3199e-07 -2.32891 2.56799 -5.48853 16.3773 -1.3905e-06 -6.99897e-07 -1.92934 -5.11047 5.96021 6.45672 -1.25837e-06 -1.02172e-07 -3.09569 -2.4196 0.773273 12.9942 -0.242716 4.98039 -91.8273 5.72345 -87.2607 5.34809 -7.22636e-06 -6.2814e-07 -62.7323 -0.727978 7.37399 24.3286 1.87007e-05 4.90208e-06 -0.0957795 -0.271515 -19.4157 22.2916 -9.88446e-07 4.63217e-06 19.4752 5.542 -8.33393 12.9945 -0.242716 -4.98039 97.7758 -16.7343 -79.6274 -5.34813 -1.25947e-06 -3.79883e-06 -22.6593 -81.7149 -76.7213 -24.3289 0.000322201 -8.65921e-06 -1.09039 -1.49233 -36.1427 -22.2915 -0.000108084 -4.47941e-06 14.6812 5.5551 -8.93527 -2.19248 -6.46944 -1.22534e-07 -174.212 -5.94988 2.80913 39.0811 -6.73843e-06 -1.23785e-05 -0.0037024 0.0420001 8.75734 40.9854 -6.48686e-06 -1.26872e-05 -4.26105 2.6035 -61.0625 11.7543 -2.30145e-07 3.05095e-06 -0.0138193 0.0101779 -16.5757 -2.19251 6.46944 -1.45247e-06 172.712 18.9758 -176.322 -39.0811 -0.00228153 -0.0401928 0.00712747 -0.00959189 8.18878 -40.9854 7.72618e-06 5.99936e-06 -3.49421 8.85303 -59.7775 -11.7543 -5.6619e-06 -5.58687e-06 0.0988182 -0.112 -17.6724 
0 0 0 0 0 -0 -1.2952 92.958 4.10633 89.4889 0.33565 0.183042 15.7357 5.1072e-06 -5.51765e-07 111.208 87.1435 -114.316 8.98455 -0.406207 -4.3199e-07 -2.36971 2.3407 -6.16768 16.3773 -1.3905e-06 -6.99897e-07 -2.65321 -5.0224 5.11536 6.45672 -1.25837e-06 -1.02172e-07 -3.07345 -2.91774 1.76658 12.9942 -0.242716 4.98039 -91.9621 6.14043 -87.2416 5.34809 -7.22636e-06 -6.2814e-07 -61.8446 -1.28507 7.06206 24.3286 1.87007e-05 4.90208e-06 -0.600539 -1.55097 -21.1633 22.2916 -9.88446e-07 4.63217e-06 19.8846 5.54814 -8.61908 12.9945 -0.242716 -4.98039 97.2662 -16.3044 -80.5742 -5.34813 -1.25947e-06 -3.79883e-06 -10.5017 -81.2569 -58.8797 -24.3289 0.000322201 -8.65921e-06 -0.948777 -1.97913 -25.5956 -22.2915 -0.000108084 -4.47941e-06 13.4268 5.50449 -6.71549 -2.19248 -6.46944 -1.22534e-07 -173.784 -4.93315 2.42736 39.0811 -6.73843e-06 -1.23785e-05 -0.00402553 0.0454537 8.78468 40.9854 -6.48686e-06 -1.26872e-05 -4.40824 2.70387 -60.9503 11.7543 -2.30145e-07 3.05095e-06 -0.0183025 0.0139332 -16.5751 -2.19251 6.46944 -1.45247e-06 173.184 19.9111 -176.474 -39.0811 -0.00228153 -0.0401928 0.0081204 -0.0128284 8.52813 -40.9854 7.72618e-06 5.99936e-06 -3.20344 8.66359 -59.661 -11.7543 -5.6619e-06 -5.58687e-06 0.111152 -0.126291 -17.8111 
0 0 0 0 0 -0 -1.50548 92.9926 4.09388 89.1356 1.35396 0.0836686 15.7357 5.1072e-06 -5.51765e-07 110.67 87.1143 -114.15 8.98455 -0.406207 -4.3199e-07 -2.28626 2.34161 -6.91446 16.3773 -1.3905e-06 -6.99897e-07 -3.39075 -4.3933 3.64551 6.45672 -1.25837e-06 -1.02172e-07 -3.05339 -3.60805 2.3304 12.9942 -0.242716 4.98039 -92.1648 6.7583 -87.1929 5.34809 -7.22636e-06 -6.2814e-07 -60.7834 -0.315907 6.39331 24.3286 1.87007e-05 4.90208e-06 -1.61519 -3.87103 -22.6696 22.2916 -9.88446e-07 4.63217e-06 19.5875 5.55939 -9.15771 12.9945 -0.242716 -4.98039 96.2547 -15.2913 -82.4338 -5.34813 -1.25947e-06 -3.79883e-06 0.880374 -81.2898 -39.1461 -24.3289 0.000322201 -8.65921e-06 -0.696119 -2.441 -15.9111 -22.2915 -0.000108084 -4.47941e-06 14.3934 5.42561 -3.80139 -2.19248 -6.46944 -1.22534e-07 -173.266 -4.24911 2.09415 39.0811 -6.73843e-06 -1.23785e-05 -0.00450881 0.0481499 8.81483 40.9854 -6.48686e-06 -1.26872e-05 -4.53517 3.03393 -60.8253 11.7543 -2.30145e-07 3.05095e-06 -0.0189588 0.0148866 -16.575 -2.19251 6.46944 -1.45247e-06 173.635 21.1443 -176.647 -39.0811 -0.00228153 -0.0401928 0.00855005 -0.0125906 8.91031 -40.9854 7.72618e-06 5.99936e-06 -3.0702 8.89222 -59.3518 -11.7543 -5.6619e-06 -5.58687e-06 0.122429 -0.139402 -17.9383 
0 0 0 0 0 -0 -1.73912 92.9771 4.08815 88.9509 2.5618 0.0995554 15.7357 5.1072e-06 -5.51765e-07 109.683 87.0243 -113.69 8.98455 -0.406207 -4.3199e-07 -2.06824 2.34747 -7.97236 16.3773 -1.3905e-06 -6.99897e-07 -3.82346 -3.80576 2.47891 6.45672 -1.25837e-06 -1.02172e-07 -3.24968 -4.347 3.03926 12.9942 -0.242716 4.98039 -92.1722 6.71411 -87.026 5.34809 -7.22636e-06 -6.2814e-07 -60.1365 0.787428 5.33454 24.3286 1.87007e-05 4.90208e-06 -1.66171 -3.74517 -23.9489 22.2916 -9.88446e-07 4.63217e-06 18.998 5.55797 -9.08783 12.9945 -0.242716 -4.98039 95.1573 -13.6403 -84.0572 -5.34813 -1.25947e-06 -3.79883e-06 12.2596 -81.8027 -18.5846 -24.3289 0.000322201 -8.65921e-06 -0.370654 -2.53682 -8.27459 -22.2915 -0.000108084 -4.47941e-06 15.6503 5.3485 -1.33131 -2.19248 -6.46944 -1.22534e-07 -172.907 -3.22531 1.56253 39.0811 -6.73843e-06 -1.23785e-05 -0.00620135 0.0580268 9.36964 40.9854 -6.48686e-06 -1.26872e-05 -4.66941 3.28356 -60.9576 11.7543 -2.30145e-07 3.05095e-06 -0.0235844 0.0192322 -16.5741 -2.19251 6.46944 -1.45247e-06 173.882 22.482 -176.573 -39.0811 -0.00228153 -0.0401928 0.00896813 -0.0128602 9.24096 -40.9854 7.72618e-06 5.99936e-06 -2.81879 9.00823 -59.5425 -11.7543 -5.6619e-06 -5.58687e-06 0.129477 -0.147664 -18.0182 
0 0 0 0 0 -0 -1.93799 92.9266 4.09695 88.969 3.8154 0.180033 15.7357 5.1072e-06 -5.51765e-07 107.267 86.9468 -111.69 8.98455 -0.406207 -4.3199e-07 -1.83561 2.18219 -8.80937 16.3773 -1.3905e-06 -6.99897e-07 -4.06406 -3.31248 1.48585 6.45672 -1.25837e-06 -1.02172e-07 -3.52785 -4.85813 3.16515 12.9942 -0.242716 4.98039 -92.2251 6.83708 -86.9247 5.34809 -7.22636e-06 -6.2814e-07 -59.4464 2.26742 4.80405 24.3286 1.87007e-05 4.90208e-06 -1.44505 -3.09274 -25.0607 22.2916 -9.88446e-07 4.63217e-06 18.6357 5.55962 -9.16882 12.9945 -0.242716 -4.98039 94.4465 -11.9065 -84.348 -5.34813 -1.25947e-06 -3.79883e-06 17.5632 -86.0915 -5.86379 -24.3289 0.000322201 -8.65921e-06 0.0960112 1.51807 -3.69268 -22.2915 -0.000108084 -4.47941e-06 14.5159 5.24868 1.46846 -2.19248 -6.46944 -1.22534e-07 -172.78 -2.14718 0.986184 39.0811 -6.73843e-06 -1.23785e-05 -0.00828211 0.0682031 10.1389 40.9854 -6.48686e-06 -1.26872e-05 -4.77383 3.47445 -61.2022 11.7543 -2.30145e-07 3.05095e-06 -0.0262367 0.022216 -16.5736 -2.19251 6.46944 -1.45247e-06 173.905 23.4586 -176.266 -39.0811 -0.00228153 -0.0401928 0.0086094 -0.0117727 9.36075 -40.9854 7.72618e-06 5.99936e-06 -2.66554 8.74498 -60.0516 -11.7543 -5.6619e-06 -5.58687e-06 0.127203 -0.144979 -17.9923 
